<svg width="605" height="481" viewBox="0 0 605 481" fill="none" xmlns="http://www.w3.org/2000/svg">
<g clip-path="url(#clip0)">
<path opacity="0.1" d="M354.811 81.2866C316.53 79.9557 280.065 67.5988 245.25 54.0767C210.435 40.5546 175.951 25.5714 138.586 18.4081C114.554 13.8001 87.0674 13.1495 67.7079 26.0328C49.07 38.4547 43.0487 59.8381 39.8132 79.7013C37.3763 94.6431 35.9449 110.366 42.6228 124.355C47.2542 134.068 55.4818 142.231 61.166 151.565C80.9632 183.933 66.9745 223.849 45.5211 255.454C35.4658 270.283 23.7838 284.438 16.0235 300.208C8.26312 315.978 4.66686 334.072 11.4572 350.174C18.1942 366.145 34.2414 378.117 51.6194 386.546C86.9254 403.671 128.513 408.568 169.095 411.343C258.901 417.489 349.18 414.827 439.223 412.165C472.548 411.177 506.014 410.177 538.794 405.025C557.001 402.162 575.792 397.625 589.012 386.659C605.787 372.74 609.945 349.168 598.707 331.718C579.844 302.444 527.728 295.174 514.526 263.753C507.274 246.463 514.727 227.203 525.267 211.161C547.886 176.758 585.794 146.573 587.793 107.248C589.166 80.2337 570.936 53.1894 542.757 40.4067C513.224 26.9615 472.258 28.665 450.479 50.8411C428.038 73.6915 388.609 82.4578 354.811 81.2866Z" fill="#003579"/>
<path d="M257.565 408.444L55.1092 407.456L34.9926 360.271L106.125 355.107L93.7276 303.373L234.419 285.136L99.6957 238.3L111.596 235.472L328.23 270.815L316.299 351.552L299.247 395.922L257.565 408.444Z" fill="#003579"/>
<path d="M58.2145 387.694C58.2145 387.694 70.6358 385.706 78.0886 394.484C78.0886 394.484 72.6232 398.791 60.8644 392.828L58.2145 387.694Z" fill="#003579"/>
<path d="M56.9132 387.499C56.9132 387.499 48.9872 397.253 52.8911 408.113C52.8911 408.113 59.3501 405.528 60.054 392.361L56.9132 387.499Z" fill="#003579"/>
<path d="M49.7917 371.462C49.7917 371.462 54.7602 362.347 74.6343 375.106C74.6343 375.106 71.9844 381.234 63.2067 380.737C54.4289 380.241 52.1103 376.266 49.7917 371.462Z" fill="#003579"/>
<path d="M48.5081 370.806C48.5081 370.806 38.1984 369.623 37.1988 393.224C37.1988 393.224 43.7348 394.579 48.378 387.114C53.0212 379.649 51.1166 375.461 48.5081 370.806Z" fill="#003579"/>
<path d="M42.5045 351.978C42.5045 351.978 48.3011 335.912 69.3345 347.34C69.3345 347.34 64.5316 362.081 44.6575 357.443L42.5045 351.978Z" fill="#003579"/>
<path d="M36.0454 327.962C36.0454 327.962 46.9762 311.731 66.3534 326.779C66.3534 326.779 59.5631 342.017 37.7016 333.735L36.0454 327.962Z" fill="#003579"/>
<path d="M33.7268 305.106C33.7268 305.106 46.4793 290.194 65.6673 305.106C65.6673 305.106 53.5772 318.19 33.7268 308.915V305.106Z" fill="#003579"/>
<path d="M31.7394 282.906C31.7394 282.906 44.6575 267.337 63.041 282.078C63.041 282.078 48.4667 295.825 31.7394 286.55V282.906Z" fill="#003579"/>
<path d="M32.8987 263.197C32.8987 263.197 46.503 243.156 63.7035 256.737C63.7035 256.737 49.1292 273.962 32.8987 267.006V263.197Z" fill="#003579"/>
<path d="M36.0454 240.175C36.0454 240.175 50.4541 220.3 67.1815 235.537C67.1815 235.537 50.1229 252.762 36.0454 243.818V240.175Z" fill="#003579"/>
<path d="M40.8483 219.596C40.8483 219.596 57.9069 200.915 72.7888 208.357C72.7888 208.357 55.0145 228.196 40.1031 224.553L40.8483 219.596Z" fill="#003579"/>
<path d="M46.8105 200.087C46.8105 200.087 66.4953 177.207 77.9466 184.85C77.9466 184.85 63.4432 202.595 45.4146 204.37L46.8105 200.087Z" fill="#003579"/>
<path d="M55.4167 177.462C55.4167 177.462 72.6468 158.782 85.2337 163.419C85.2337 163.419 70.4938 182.797 53.104 183.294L55.4167 177.462Z" fill="#003579"/>
<path d="M63.2067 156.297C63.2067 156.297 82.2527 138.41 90.5335 141.557C90.5335 141.557 76.7873 161.432 62.3786 160.272L63.2067 156.297Z" fill="#003579"/>
<path d="M70.8251 136.753C70.8251 136.753 87.2212 115.382 96.1704 117.038C96.1704 117.038 86.2275 136.091 70.8251 138.924V136.753Z" fill="#003579"/>
<path d="M79.0941 110.401C79.0941 110.401 93.5856 94.022 101.417 94.0575C101.417 94.0575 89.9775 115.944 78.4967 115.743L79.0941 110.401Z" fill="#003579"/>
<path d="M83.9916 92.8567L97.9922 58.7379C97.9922 58.7379 98.6902 89.5797 82.2112 99.186L83.9916 92.8567Z" fill="#003579"/>
<path d="M89.6758 55.2302C89.6758 55.2302 91.9945 26.7367 90.5039 24.4179C90.5039 24.4179 100.512 48.1083 89.5812 67.8177L89.6758 55.2302Z" fill="#003579"/>
<path d="M41.9603 351.599C41.9603 351.599 27.4451 342.602 18.0464 364.613C18.0464 364.613 30.9645 373.19 43.6697 357.213L41.9603 351.599Z" fill="#003579"/>
<path d="M35.5781 327.045C35.5781 327.045 17.7743 318.924 9.13852 341.904C9.13852 341.904 22.8907 351.369 37.1988 332.854L35.5781 327.045Z" fill="#003579"/>
<path d="M32.8987 306.472C32.8987 306.472 20.1462 291.56 0.958213 306.472C0.958213 306.472 13.0483 319.557 32.8987 310.282V306.472Z" fill="#003579"/>
<path d="M31.3017 282.906C31.3017 282.906 18.3835 267.337 1.90735e-06 282.078C1.90735e-06 282.078 14.5743 295.825 31.3017 286.55V282.906Z" fill="#003579"/>
<path d="M32.8987 263.764C32.8987 263.764 23.8371 241.316 4.14043 250.97C4.14043 250.97 14.7873 270.875 32.0943 267.491L32.8987 263.764Z" fill="#003579"/>
<path d="M37.187 240.062C37.187 240.062 28.1786 217.224 8.20397 227.812C8.20397 227.812 20.436 248.746 36.2998 243.588L37.187 240.062Z" fill="#003579"/>
<path d="M42.7707 219.708C42.7707 219.708 39.2217 194.669 22.66 192.427C22.66 192.427 26.1734 218.833 40.5407 224.221L42.7707 219.708Z" fill="#003579"/>
<path d="M47.2305 200.135C47.2305 200.135 45.8464 169.967 32.1534 168.914C32.1534 168.914 32.6148 191.812 45.6867 204.405L47.2305 200.135Z" fill="#003579"/>
<path d="M56.8363 176.616C56.8363 176.616 52.755 151.53 39.6831 148.465C39.6831 148.465 41.3038 172.759 55.5409 182.774L56.8363 176.616Z" fill="#003579"/>
<path d="M64.7564 156.504C64.7564 156.504 64.6203 130.371 56.6352 126.532C56.6352 126.532 51.6844 150.193 62.4436 159.84L64.7564 156.504Z" fill="#003579"/>
<path d="M71.4343 136.458C71.4343 136.458 70.3164 109.549 62.0473 105.758C62.0473 105.758 59.22 127.052 70.1981 138.22L71.4343 136.458Z" fill="#003579"/>
<path d="M80.2475 112.548C80.2475 112.548 80.2002 90.6622 74.2971 85.5278C74.2971 85.5278 68.4295 109.502 77.1658 116.949L80.2475 112.548Z" fill="#003579"/>
<path d="M83.2996 91.7802L77.5562 55.3544C77.5562 55.3544 69.7545 85.2025 83.5717 98.3579L83.2996 91.7802Z" fill="#003579"/>
<path d="M84.4175 55.5733C84.4175 55.5733 69.6776 31.0843 69.9792 28.3634C69.9792 28.3634 71.5467 54.0294 90.0899 66.8121L84.4175 55.5733Z" fill="#003579"/>
<path d="M86.1447 48.339C86.1447 48.339 72.2328 13.5576 65.9393 10.742C65.9393 10.742 85.8134 20.8451 87.304 47.3452L86.1447 48.339Z" fill="#003579"/>
<path d="M78.4257 115.95L77.4734 115.66C89.2145 77.3708 92.1424 52.9588 85.7247 46.8365L86.4049 46.1149C93.213 52.5743 90.4507 76.7201 78.4257 115.95Z" fill="#444053"/>
<path d="M46.0948 205.6L44.6871 205.098C45.9351 201.59 47.2778 198.029 48.6856 194.521C60.9412 163.975 71.3751 135.559 78.0649 113.743L79.2893 113.152C72.5877 135.008 62.3372 164.513 50.0697 195.101C48.6678 198.544 47.3311 202.087 46.0948 205.6Z" fill="#444053"/>
<path d="M75.7167 416.347C75.5274 416.14 56.4992 394.709 43.232 358.124C35.4583 336.704 31.132 314.187 30.4144 291.412C29.5035 262.942 35.4776 231.154 45.7104 202.276L46.8224 203.577C23.8489 268.39 32.9756 323.928 45.0834 357.372C58.2086 393.627 77.0239 414.821 77.2072 415.034L75.7167 416.347Z" fill="#444053"/>
<path d="M373.071 370.847C373.071 370.847 359.662 387.215 370.308 411.958L263.249 458.392L252.975 460.545L248.243 439.842L251.407 413.715V399.435L373.071 370.847Z" fill="#D5D6DB"/>
<path d="M34.9926 360.271L183.173 333.256L379.518 364.536L257.565 408.444L34.9926 360.271Z" fill="#003579"/>
<path d="M34.9926 360.271L183.173 333.256L379.518 364.536L257.565 408.444L34.9926 360.271Z" fill="#003579"/>
<path d="M34.9926 360.265C34.9926 360.265 21.1339 386.523 37.1042 410.775L256.843 458.392C256.843 458.392 243.203 437.476 257.547 408.444L34.9926 360.265Z" fill="#003579"/>
<path opacity="0.1" d="M34.9926 360.265C34.9926 360.265 21.1339 386.523 37.1042 410.775L256.843 458.392C256.843 458.392 243.203 437.476 257.547 408.444L34.9926 360.265Z" fill="black"/>
<path opacity="0.1" d="M41.5404 369.368C41.5404 369.368 33.6203 388.581 41.5404 401.015V369.368Z" fill="black"/>
<path d="M256.843 458.392L379.518 406.043C379.518 406.043 386.379 407.521 381.943 412.549C377.507 417.577 259.209 463.42 259.209 463.42L37.1042 410.775L256.843 458.392Z" fill="#003579"/>
<path opacity="0.1" d="M256.843 458.392L379.518 406.043C379.518 406.043 386.379 407.521 381.943 412.549C377.507 417.577 259.209 463.42 259.209 463.42L37.1042 410.775L256.843 458.392Z" fill="black"/>
<path opacity="0.1" d="M246.788 413.732C246.788 413.732 234.958 427.929 246.788 449.224V413.732Z" fill="black"/>
<path opacity="0.1" d="M304.06 413.492L250.998 431.196L251.185 431.757L304.247 414.053L304.06 413.492Z" fill="black"/>
<path opacity="0.1" d="M314.688 411.731L250.981 435.957L251.191 436.51L314.898 412.284L314.688 411.731Z" fill="black"/>
<path opacity="0.1" d="M324.449 411.646L251.337 441.573L251.561 442.12L324.673 412.193L324.449 411.646Z" fill="black"/>
<path opacity="0.1" d="M335.063 409.083L252.19 446.521L252.433 447.06L335.306 409.622L335.063 409.083Z" fill="black"/>
<path opacity="0.1" d="M343.98 409.095L252.846 448.932L253.083 449.474L344.217 409.637L343.98 409.095Z" fill="black"/>
<path opacity="0.1" d="M363.484 405.783L254.22 452.977L254.455 453.52L363.719 406.326L363.484 405.783Z" fill="black"/>
<path opacity="0.3" d="M90.0426 363.157L194.145 341.271L257.564 353.397L172.26 380.903L90.0426 363.157Z" fill="white"/>
<path d="M379.518 364.536C379.518 364.536 384.901 366.707 381.742 370.061C378.583 373.414 257.547 408.444 257.547 408.444L379.518 364.536Z" fill="#003579"/>
<path d="M431.8 313.955C431.8 313.955 418.397 330.316 429.043 355.066L321.984 401.5L311.709 403.665L306.978 382.962L310.189 356.84V342.543L431.8 313.955Z" fill="#D5D6DB"/>
<path d="M93.7276 303.373L241.902 276.364L438.253 307.643L316.299 351.552L93.7276 303.373Z" fill="#3A3768"/>
<path d="M93.7039 303.373C93.7039 303.373 79.8394 329.63 95.8096 353.882L315.548 401.5C315.548 401.5 301.914 380.566 316.276 351.546L93.7039 303.373Z" fill="#3A3768"/>
<path opacity="0.1" d="M93.7039 303.373C93.7039 303.373 79.8394 329.63 95.8096 353.882L315.548 401.5C315.548 401.5 301.914 380.566 316.276 351.546L246.788 336.504L93.7039 303.373Z" fill="black"/>
<path opacity="0.1" d="M100.269 312.476C100.269 312.476 92.3553 331.683 100.269 344.122V312.476Z" fill="black"/>
<path d="M315.572 401.5L438.253 349.15C438.253 349.15 445.108 350.629 440.672 355.657C436.236 360.685 317.938 406.528 317.938 406.528L95.8333 353.882L315.572 401.5Z" fill="#3A3768"/>
<path opacity="0.1" d="M315.572 401.5L438.253 349.15C438.253 349.15 445.108 350.629 440.672 355.657C436.236 360.685 317.938 406.528 317.938 406.528L95.8333 353.882L315.572 401.5Z" fill="black"/>
<path opacity="0.1" d="M305.517 356.84C305.517 356.84 293.687 371.037 305.517 392.331V356.84Z" fill="black"/>
<path opacity="0.1" d="M362.794 356.606L309.731 374.31L309.919 374.871L362.981 357.167L362.794 356.606Z" fill="black"/>
<path opacity="0.1" d="M373.429 354.842L309.722 379.068L309.932 379.621L373.639 355.395L373.429 354.842Z" fill="black"/>
<path opacity="0.1" d="M383.181 354.749L310.069 384.676L310.293 385.223L383.405 355.296L383.181 354.749Z" fill="black"/>
<path opacity="0.1" d="M393.802 352.187L310.929 389.625L311.173 390.164L394.045 352.726L393.802 352.187Z" fill="black"/>
<path opacity="0.1" d="M402.71 352.192L311.577 392.028L311.814 392.57L402.947 352.734L402.71 352.192Z" fill="black"/>
<path opacity="0.1" d="M422.219 348.879L312.956 396.074L313.19 396.617L422.454 349.422L422.219 348.879Z" fill="black"/>
<path opacity="0.45" d="M148.778 306.265L252.88 284.379L316.299 296.505L230.995 324.011L148.778 306.265Z" fill="white"/>
<path d="M438.253 307.643C438.253 307.643 443.63 309.814 440.477 313.162C437.324 316.51 316.299 351.546 316.299 351.546L438.253 307.643Z" fill="#3A3768"/>
<path d="M437.36 248.87C437.36 248.87 423.951 278.251 434.598 302.994L327.538 336.415L317.287 338.586L312.555 317.883L315.72 291.755V277.458L437.36 248.87Z" fill="#D5D6DB"/>
<path d="M99.3053 238.294L247.485 211.279L443.837 242.558L321.877 286.467L99.3053 238.294Z" fill="#003579"/>
<path d="M99.3053 238.288C99.3053 238.288 85.423 264.545 101.393 288.798L321.132 336.415C321.132 336.415 307.492 315.481 321.854 286.467L99.3053 238.288Z" fill="#003579"/>
<path opacity="0.1" d="M99.3053 238.288C99.3053 238.288 85.423 264.545 101.393 288.798L321.132 336.415C321.132 336.415 307.492 315.481 321.854 286.467L99.3053 238.288Z" fill="black"/>
<path opacity="0.1" d="M105.853 247.391C105.853 247.391 97.933 266.604 105.853 279.038V247.391Z" fill="black"/>
<path d="M321.156 336.415L443.831 297.079C443.831 297.079 450.692 298.558 446.256 303.586C441.82 308.613 323.522 341.443 323.522 341.443L101.417 288.798L321.156 336.415Z" fill="#003579"/>
<path opacity="0.1" d="M321.156 336.415L443.831 297.079C443.831 297.079 450.692 298.558 446.256 303.586C441.82 308.613 323.522 341.443 323.522 341.443L101.417 288.798L321.156 336.415Z" fill="black"/>
<path opacity="0.1" d="M311.1 291.755C311.1 291.755 299.27 305.952 311.1 327.246V291.755Z" fill="black"/>
<path opacity="0.1" d="M368.379 291.52L315.317 309.224L315.504 309.785L368.566 292.081L368.379 291.52Z" fill="black"/>
<path opacity="0.1" d="M379.01 289.759L315.303 313.985L315.514 314.538L379.221 290.312L379.01 289.759Z" fill="black"/>
<path opacity="0.1" d="M388.757 289.669L315.645 319.596L315.869 320.143L388.981 290.216L388.757 289.669Z" fill="black"/>
<path opacity="0.1" d="M399.386 287.102L316.513 324.539L316.757 325.078L399.629 287.641L399.386 287.102Z" fill="black"/>
<path opacity="0.1" d="M408.297 287.112L317.164 326.948L317.401 327.49L408.534 287.654L408.297 287.112Z" fill="black"/>
<path opacity="0.1" d="M427.805 283.803L318.541 330.998L318.775 331.541L428.039 284.346L427.805 283.803Z" fill="black"/>
<path opacity="0.3" d="M154.355 241.18L258.458 219.294L321.877 231.42L236.572 258.926L154.355 241.18Z" fill="white"/>
<path d="M443.831 242.558C443.831 242.558 449.213 244.729 446.055 248.083C442.896 251.437 321.877 286.467 321.877 286.467L443.831 242.558Z" fill="#003579"/>
<path d="M183.61 62.9968C183.61 62.9968 161.134 61.6422 163.76 77.4122C163.76 77.4122 163.234 80.1982 165.759 81.4641C165.759 81.4641 165.801 80.281 168.066 80.6892C168.874 80.8281 169.697 80.8678 170.515 80.8075C171.618 80.732 172.666 80.3002 173.502 79.5771C173.502 79.5771 179.825 76.9626 182.286 66.6228C182.286 66.6228 184.107 64.3692 184.06 63.7895L180.251 65.4102C180.251 65.4102 181.546 68.149 180.529 70.4263C180.529 70.4263 180.405 65.5108 179.671 65.6232C179.523 65.6232 177.701 66.5755 177.701 66.5755C177.701 66.5755 179.931 71.3491 178.246 74.8154C178.246 74.8154 178.884 68.9357 177.004 66.9186L174.33 68.4802C174.33 68.4802 176.938 73.4076 175.17 77.4299C175.17 77.4299 175.625 71.2604 173.768 68.8588L171.343 70.7516C171.343 70.7516 173.798 75.608 172.301 78.9442C172.301 78.9442 172.106 71.7632 170.822 71.219C170.822 71.219 168.699 73.0881 168.38 73.8571C168.38 73.8571 170.059 77.4062 169.012 79.2459C169.012 79.2459 168.38 74.4605 167.829 74.4368C167.829 74.4368 165.718 77.6074 165.499 79.7605C165.601 77.7532 166.227 75.8076 167.315 74.1174C166.098 74.3477 164.975 74.9297 164.085 75.7914C164.085 75.7914 164.411 73.5495 167.841 73.3543C167.841 73.3543 169.586 70.9468 170.053 70.8049C170.053 70.8049 166.641 70.515 164.576 71.4319C164.576 71.4319 166.398 69.3202 170.675 70.2489L173.041 68.2968C173.041 68.2968 168.557 67.7053 166.652 68.3619C166.652 68.3619 168.847 66.4927 173.685 67.8532L176.294 66.2975C176.294 66.2975 172.467 65.4753 170.19 65.7711C170.19 65.7711 172.591 64.4756 177.057 65.8775L178.914 65.0435C178.914 65.0435 176.116 64.4934 175.294 64.4046C174.472 64.3159 174.431 64.0911 174.431 64.0911C176.206 63.7995 178.028 64.0042 179.695 64.6827C179.695 64.6827 183.687 63.2453 183.61 62.9968Z" fill="#003579"/>
<path opacity="0.1" d="M499.821 127.816C499.821 127.816 477.345 126.461 479.971 142.231C479.971 142.231 479.444 145.017 481.97 146.283C481.97 146.283 482.011 145.1 484.277 145.508C485.086 145.644 485.908 145.683 486.726 145.626C487.818 145.546 488.856 145.114 489.683 144.396C489.683 144.396 496.012 141.781 498.467 131.442C498.467 131.442 500.288 129.188 500.241 128.608L496.444 130.229C496.444 130.229 497.739 132.968 496.722 135.245C496.722 135.245 496.598 130.329 495.87 130.442C495.722 130.442 493.894 131.394 493.894 131.394C493.894 131.394 496.124 136.168 494.445 139.634C494.445 139.634 495.083 133.754 493.196 131.737L490.523 133.299C490.523 133.299 493.131 138.226 491.363 142.249C491.363 142.249 491.818 136.079 489.961 133.677L487.542 135.57C487.542 135.57 489.991 140.427 488.494 143.763C488.494 143.763 488.299 136.582 487.015 136.038C487.015 136.038 484.898 137.907 484.573 138.676C484.573 138.676 486.252 142.225 485.211 144.065C485.211 144.065 484.573 139.279 484.028 139.256C484.028 139.256 481.917 142.426 481.698 144.579C481.8 142.571 482.429 140.625 483.52 138.936C482.301 139.167 481.177 139.749 480.284 140.61C480.284 140.61 480.615 138.368 484.04 138.173C484.04 138.173 485.785 135.766 486.252 135.618C486.252 135.618 482.845 135.334 480.775 136.251C480.775 136.251 482.597 134.139 486.873 135.068L489.239 133.116C489.239 133.116 484.75 132.524 482.851 133.181C482.851 133.181 485.04 131.311 489.884 132.672L492.487 131.116C492.487 131.116 488.66 130.294 486.382 130.59C486.382 130.59 488.784 129.294 493.25 130.696L495.113 129.862C495.113 129.862 492.309 129.312 491.487 129.223C490.665 129.135 490.623 128.91 490.623 128.91C492.399 128.614 494.222 128.819 495.888 129.501C495.888 129.501 499.892 128.064 499.821 127.816Z" fill="#003579"/>
<path opacity="0.1" d="M221.466 160.42C221.466 160.42 211.671 140.113 199.202 150.122C199.202 150.122 196.511 151.021 196.641 153.842C196.641 153.842 197.676 153.304 198.415 155.481C198.692 156.25 199.057 156.985 199.504 157.67C200.109 158.598 201 159.303 202.041 159.681C202.041 159.681 207.406 163.928 217.633 161.029C217.633 161.029 220.49 161.52 220.957 161.177L217.692 158.651C217.692 158.651 215.918 161.118 213.445 161.337C213.445 161.337 217.68 158.835 217.225 158.255C217.13 158.137 215.45 156.995 215.45 156.995C215.45 156.995 212.369 161.272 208.524 161.491C208.524 161.491 213.966 159.184 214.806 156.552L212.144 154.978C212.144 154.978 209.11 159.663 204.738 160.077C204.738 160.077 210.346 157.468 211.535 154.676L208.707 153.493C208.707 153.493 205.661 158.001 202.018 158.326C202.018 158.326 208.193 154.653 208.039 153.263C208.039 153.263 205.371 152.328 204.543 152.417C204.543 152.417 202.284 155.605 200.154 155.605C200.154 155.605 204.017 152.713 203.78 152.245C203.78 152.245 199.983 151.95 197.984 152.837C199.785 151.941 201.79 151.533 203.798 151.654C203.001 150.704 201.945 150.007 200.758 149.649C200.758 149.649 202.875 148.844 204.715 151.737C204.715 151.737 207.672 152.086 208.021 152.423C208.021 152.423 206.608 149.311 204.804 147.957C204.804 147.957 207.536 148.507 208.784 152.689L211.653 153.825C211.653 153.825 210.003 149.613 208.483 148.282C208.483 148.282 211.18 149.282 212.357 154.197L214.983 155.712C214.983 155.712 213.842 151.967 212.469 150.128C212.469 150.128 214.77 151.595 215.722 156.173L217.361 157.392C217.361 157.392 216.474 154.676 216.178 153.919C215.882 153.162 216.03 153.008 216.03 153.008C217.155 154.413 217.868 156.102 218.088 157.888C218.088 157.888 221.253 160.598 221.466 160.42Z" fill="#003579"/>
<path opacity="0.1" d="M448.468 99.1268C448.468 99.1268 438.679 78.82 426.204 88.8285C426.204 88.8285 423.519 89.7276 423.643 92.5491C423.643 92.5491 424.684 92.0168 425.418 94.1876C425.693 94.9603 426.061 95.6971 426.512 96.3822C427.115 97.3084 428.004 98.0125 429.043 98.3874C429.043 98.3874 434.414 102.635 444.635 99.742C444.635 99.742 447.492 100.227 447.965 99.884L444.718 97.3523C444.718 97.3523 442.943 99.8248 440.477 100.044C440.477 100.044 444.706 97.5357 444.251 96.956C444.156 96.8377 442.476 95.696 442.476 95.696C442.476 95.696 439.4 99.9727 435.55 100.192C435.55 100.192 440.997 97.8847 441.837 95.2583L439.134 93.6967C439.134 93.6967 436.106 98.3756 431.729 98.7956C431.729 98.7956 437.336 96.1811 438.531 93.3891L435.698 92.2061C435.698 92.2061 432.652 96.7194 429.014 97.0388C429.014 97.0388 435.183 93.3654 435.029 91.9813C435.029 91.9813 432.368 91.0408 431.54 91.1354C431.54 91.1354 429.28 94.3178 427.145 94.3178C427.145 94.3178 431.013 91.4253 430.776 90.958C430.776 90.958 426.979 90.6622 424.974 91.5495C426.775 90.6538 428.78 90.2459 430.788 90.3664C429.995 89.4158 428.94 88.7186 427.754 88.3612C427.754 88.3612 429.872 87.5567 431.711 90.4492C431.711 90.4492 434.668 90.8042 435.017 91.1413C435.017 91.1413 433.604 88.024 431.794 86.6694C431.794 86.6694 434.527 87.2255 435.775 91.4312L438.649 92.5669C438.649 92.5669 436.999 88.3494 435.479 87.0184C435.479 87.0184 438.176 88.0181 439.347 92.9336L441.979 94.4479C441.979 94.4479 440.832 90.7095 439.46 88.864C439.46 88.864 441.766 90.3309 442.713 94.9093L444.351 96.1278C444.351 96.1278 443.47 93.4128 443.168 92.6556C442.867 91.8985 443.02 91.7506 443.02 91.7506C444.142 93.1563 444.853 94.8455 445.073 96.6306C445.073 96.6306 448.285 99.3161 448.468 99.1268Z" fill="#003579"/>
<path opacity="0.1" d="M479.752 199.573C479.752 199.573 469.963 179.26 457.47 189.269C457.47 189.269 454.785 190.168 454.909 192.989C454.909 192.989 455.95 192.457 456.684 194.628C456.958 195.4 457.323 196.137 457.772 196.822C458.375 197.748 459.264 198.453 460.304 198.827C460.304 198.827 465.674 203.08 475.901 200.182C475.901 200.182 478.752 200.673 479.226 200.324L475.96 197.798C475.96 197.798 474.186 200.271 471.714 200.49C471.714 200.49 475.943 197.982 475.487 197.402C475.393 197.284 473.713 196.142 473.713 196.142C473.713 196.142 470.637 200.419 466.786 200.643C466.786 200.643 472.234 198.331 473.074 195.704L470.406 194.131C470.406 194.131 467.378 198.816 463.001 199.23C463.001 199.23 468.608 196.615 469.803 193.823L466.97 192.64C466.97 192.64 463.924 197.148 460.286 197.473C460.286 197.473 466.461 193.8 466.307 192.409C466.307 192.409 463.64 191.469 462.812 191.564C462.812 191.564 460.552 194.746 458.417 194.746C458.417 194.746 462.285 191.853 462.049 191.386C462.049 191.386 458.251 191.09 456.246 191.978C458.05 191.083 460.056 190.675 462.066 190.795C461.272 189.842 460.214 189.145 459.026 188.789C459.026 188.789 461.144 187.979 462.983 190.877C462.983 190.877 465.941 191.226 466.29 191.564C466.29 191.564 464.876 188.452 463.072 187.092C463.072 187.092 465.805 187.648 467.053 191.853L469.921 192.989C469.921 192.989 468.271 188.772 466.751 187.447C466.751 187.447 469.448 188.44 470.619 193.362L473.251 194.87C473.251 194.87 472.104 191.132 470.732 189.286C470.732 189.286 473.038 190.753 473.991 195.337L475.629 196.521C475.629 196.521 474.742 193.805 474.446 193.048C474.151 192.291 474.298 192.143 474.298 192.143C475.423 193.547 476.134 195.237 476.351 197.023C476.351 197.023 479.569 199.75 479.752 199.573Z" fill="#003579"/>
<path opacity="0.1" d="M119.451 463.846C126.962 463.846 133.05 463.165 133.05 462.326C133.05 461.486 126.962 460.806 119.451 460.806C111.941 460.806 105.853 461.486 105.853 462.326C105.853 463.165 111.941 463.846 119.451 463.846Z" fill="#003579"/>
<path opacity="0.1" d="M30.308 438.008C37.8181 438.008 43.9063 437.328 43.9063 436.488C43.9063 435.649 37.8181 434.968 30.308 434.968C22.7978 434.968 16.7096 435.649 16.7096 436.488C16.7096 437.328 22.7978 438.008 30.308 438.008Z" fill="#003579"/>
<path opacity="0.1" d="M187.402 481.006C194.912 481.006 201 480.325 201 479.486C201 478.646 194.912 477.966 187.402 477.966C179.892 477.966 173.804 478.646 173.804 479.486C173.804 480.325 179.892 481.006 187.402 481.006Z" fill="#003579"/>
<path opacity="0.1" d="M535.612 443.628C543.122 443.628 549.211 442.947 549.211 442.108C549.211 441.268 543.122 440.587 535.612 440.587C528.102 440.587 522.014 441.268 522.014 442.108C522.014 442.947 528.102 443.628 535.612 443.628Z" fill="#003579"/>
<path opacity="0.1" d="M422.454 436.252C429.964 436.252 436.053 435.571 436.053 434.731C436.053 433.892 429.964 433.211 422.454 433.211C414.944 433.211 408.856 433.892 408.856 434.731C408.856 435.571 414.944 436.252 422.454 436.252Z" fill="#003579"/>
<path opacity="0.1" d="M349.251 472.228C358.134 472.228 365.334 470.991 365.334 469.465C365.334 467.94 358.134 466.703 349.251 466.703C340.369 466.703 333.169 467.94 333.169 469.465C333.169 470.991 340.369 472.228 349.251 472.228Z" fill="#003579"/>
<path d="M356.426 441.699C356.426 441.699 334.032 453.27 345.602 466.898C345.602 466.898 346.69 469.856 349.837 469.649C349.837 469.649 349.21 468.501 351.611 467.584C352.466 467.254 353.278 466.823 354.031 466.301C355.048 465.598 355.808 464.582 356.195 463.408C356.195 463.408 360.774 457.28 357.225 445.941C357.225 445.941 357.686 442.735 357.284 442.214L354.563 445.947C354.563 445.947 357.373 447.834 357.698 450.608C357.698 450.608 354.74 445.952 354.149 446.467C354.019 446.574 352.8 448.508 352.8 448.508C352.8 448.508 357.674 451.814 358.035 456.109C358.035 456.109 355.29 450.093 352.327 449.235L350.63 452.264C350.63 452.264 355.953 455.506 356.544 460.38C356.544 460.38 353.451 454.198 350.292 452.95L349.044 456.15C349.044 456.15 354.178 459.415 354.652 463.473C354.652 463.473 350.357 456.689 348.814 456.902C348.814 456.902 347.844 459.906 347.974 460.835C347.974 460.835 351.6 463.26 351.665 465.644C351.665 465.644 348.317 461.415 347.802 461.693C347.802 461.693 347.589 465.946 348.618 468.158C348.618 468.158 346.844 464.999 347.134 461.693C346.097 462.61 345.35 463.811 344.987 465.147C344.987 465.147 344.023 462.811 347.199 460.658C347.199 460.658 347.501 457.351 347.867 456.943C347.867 456.943 344.431 458.623 342.97 460.681C342.97 460.681 343.508 457.611 348.169 456.085L349.352 452.844C349.352 452.844 344.691 454.819 343.254 456.558C343.254 456.558 344.289 453.512 349.719 452.051L351.328 449.093C351.328 449.093 347.187 450.489 345.164 452.051C345.164 452.051 346.732 449.431 351.824 448.224L353.132 446.361C353.132 446.361 350.127 447.431 349.287 447.816C348.447 448.2 348.281 448.011 348.281 448.011C349.817 446.712 351.682 445.865 353.67 445.562C353.67 445.562 356.633 441.901 356.426 441.699Z" fill="#003579"/>
<path d="M422.892 223.174C419.024 212.663 397.73 211.675 388.491 214.355C381.925 216.265 368.084 218.419 360.691 219.501L360.212 219.046C361.17 218.762 361.194 218.064 361.075 217.029C361.006 215.664 361.026 214.297 361.134 212.935C365.665 214.343 369.699 211.013 369.699 211.013C375.023 208.647 373.591 198.52 374.609 195.752C375.372 193.681 376.194 181.484 376.561 175.403H376.637L376.679 173.363C376.732 172.481 376.756 171.967 376.756 171.967C376.756 171.967 377.276 157.096 378.294 154.085C379.24 151.317 380.009 137.369 380.127 135.156C380.127 134.967 380.127 134.866 380.127 134.866L380.05 133.577C380.104 132.636 380.127 131.589 380.121 130.489C380.121 125.432 379.595 119.061 379.53 118.032C379.53 117.884 379.53 117.706 379.53 117.494C379.571 115.334 379.299 104.522 370.101 100.434C366.712 98.9198 362.637 97.1157 358.692 95.3589C357.674 86.5748 355.35 77.8381 355.551 68.9889C355.551 67.658 355.669 66.3271 355.799 65.0021C355.799 65.3866 355.758 65.777 355.752 66.1851C355.752 67.0428 355.752 67.9064 355.752 68.7641C356.101 57.6968 360.283 46.5703 359.892 35.7396C359.857 36.7984 359.78 37.8632 359.679 38.9279C359.884 35.2645 359.5 31.5921 358.544 28.0499C358.189 26.8017 357.71 25.5122 356.686 24.6782C355.719 24.0065 354.61 23.5672 353.445 23.3946C350.646 22.6781 347.803 22.1485 344.934 21.8093C344.498 20.4747 343.851 19.2186 343.017 18.0887C337.019 9.85471 328.135 2.11764 317.63 0.343079C312.36 -0.5442 306.297 0.195199 302.713 3.96318C302.339 4.29419 301.987 4.64989 301.66 5.02791C299.732 7.32892 298.904 10.3516 296.928 12.6467C296.798 12.8005 296.65 12.9424 296.508 13.0903C292.64 16.5507 286.613 17.2724 282.312 20.3778C281.555 20.9353 280.845 21.5546 280.189 22.2293C278.456 23.9464 276.903 25.8352 275.552 27.8665C273.618 30.5875 271.63 33.4209 271.015 36.6683C269.779 43.175 274.209 49.3446 275.031 55.8927C276.865 70.5446 260.652 83.5462 263.722 98.003C264.541 101.555 266.35 104.801 268.939 107.367C262.616 113.093 257.233 118.647 257.233 118.647V118.978H256.234L256.334 120.161H256.234L256.784 126.579L256.234 135.925C256.234 135.925 256.234 136.026 256.234 136.215V136.262V136.517C256.234 136.517 256.234 136.617 256.234 136.807H256.269C256.452 140.232 257.18 152.547 258.044 155.144C259.061 158.155 259.576 173.025 259.576 173.025C259.576 173.025 260.699 194.042 261.729 196.822C262.758 199.602 261.297 209.7 266.638 212.083C268.2 213.282 270.051 214.049 272.003 214.308C271.731 216.52 271.902 218.123 272.784 218.626C273.161 218.847 273.588 218.97 274.026 218.981C273.663 219.518 273.341 220.081 273.062 220.666C270.942 220.445 268.858 219.954 266.863 219.205C261.125 216.839 242.085 211.516 236.555 215.26C231.024 219.004 217.716 222.4 223.861 237.471C230.007 252.543 232.87 252.922 232.87 252.922C234.761 254.295 236.421 255.963 237.785 257.861C239.63 260.635 256.825 266.982 261.125 266.982C262.953 266.954 264.781 267.045 266.597 267.254C266.597 267.254 261.93 271.348 262.551 273.726C263.172 276.104 261.131 295.139 261.131 295.139C261.131 295.139 265.863 299.906 267.886 293.654L267.957 293.749C268.336 294.263 270.382 296.588 274.233 293.654C275.809 292.458 277.483 291.398 279.237 290.483L297.88 287.845C299.824 287.724 301.773 287.71 303.718 287.804C306.676 288.046 309.58 286.295 311.408 284.941C315.27 286.408 319.612 288.011 321.676 288.596C325.864 289.779 345.111 294.943 349.612 293.329C350.548 292.957 351.38 292.364 352.037 291.601L356.332 291.737L354.32 292.14C354.32 292.14 358.236 292.205 363.56 292.276L363.335 292.406L370.013 292.347C379.784 292.435 390.762 292.465 392.205 292.14C394.465 291.637 406.206 291.992 409.666 292.14H410.63C410.63 292.14 423.531 289.567 418.207 276.476C414.114 266.42 401.533 263.498 395.95 262.694C397.523 262.38 398.877 262.138 399.777 261.996C403.674 261.404 411.246 257.855 411.861 256.643C412.476 255.43 418.822 251.91 420.461 249.905C422.099 247.9 426.778 233.686 422.892 223.174ZM316.039 252.591L315.406 252.798L314.98 252.94L314.164 253.744C313.514 253.306 312.816 252.845 312.088 252.372C313.372 252.449 314.691 252.526 316.039 252.591Z" fill="url(#paint0_linear)"/>
<path d="M353.753 190.221C353.753 190.221 362.802 213.882 367.948 211.516C373.094 209.149 371.698 199.094 372.68 196.337C373.662 193.581 374.751 172.676 374.751 172.676C374.751 172.676 375.247 157.888 376.229 154.895C377.14 152.145 377.88 138.274 378.004 136.091C378.004 135.902 378.004 135.801 378.004 135.801L377.028 118.647L371.503 117.269L358.692 122.001L356.917 132.134L356.225 136.091L355.929 137.777L353.753 190.221Z" fill="#BE6F72"/>
<path opacity="0.1" d="M356.734 186.258C356.734 186.258 365.369 193.326 367.972 193.947C370.575 194.569 372.172 200.081 372.172 200.081" fill="black"/>
<path d="M282.981 191.256C282.981 191.256 273.931 214.917 268.785 212.551C263.639 210.185 265.035 200.129 264.053 197.372C263.071 194.616 261.983 173.712 261.983 173.712C261.983 173.712 261.486 158.924 260.504 155.93C259.593 153.18 258.854 139.309 258.73 137.126C258.73 136.937 258.73 136.836 258.73 136.836L259.712 119.682L265.236 118.304L278.048 123.036L279.822 133.169L280.514 137.126L280.81 138.812L282.981 191.256Z" fill="#BE6F72"/>
<path d="M341.911 64.6353H321.712V96.1219H341.911V64.6353Z" fill="#3E373A"/>
<path opacity="0.1" d="M341.911 64.6353H321.712V96.1219H341.911V64.6353Z" fill="black"/>
<path d="M279.432 214.822C279.432 214.822 272.529 222.411 275.09 223.79C277.651 225.168 294.219 250.999 294.219 250.999C294.219 250.999 348.636 257.701 358.899 247.646C369.161 237.59 368.954 219.625 368.954 219.625C368.954 219.625 360.709 221.4 359.809 220.436C358.91 219.471 353.971 214.822 353.971 214.822C353.971 214.822 284.164 210.587 279.432 214.822Z" fill="#4B4B5B"/>
<path opacity="0.02" d="M279.432 214.822C279.432 214.822 272.529 222.411 275.09 223.79C277.651 225.168 294.219 250.999 294.219 250.999C294.219 250.999 348.636 257.701 358.899 247.646C369.161 237.59 368.954 219.625 368.954 219.625C368.954 219.625 360.709 221.4 359.809 220.436C358.91 219.471 353.971 214.822 353.971 214.822C353.971 214.822 284.164 210.587 279.432 214.822Z" fill="black"/>
<path d="M377.395 118.895L359.65 133.092L354.285 133.482L352.315 133.624L319.233 136.049L284.927 133.541L279.822 133.169L273.316 132.696L259.712 119.682C259.712 119.682 269.341 109.366 277.776 102.404C281.1 99.6533 284.241 97.4292 286.53 96.5537L286.92 96.4177C288.36 95.8562 289.645 94.96 290.67 93.8032C297.33 86.9356 303.488 69.9886 303.488 69.9886C303.488 69.9886 332.867 54.8102 329.318 74.7207C325.769 94.6313 342.526 89.7098 342.526 89.7098L348.051 92.2297L350.233 93.2294L355.799 95.7788L368.357 101.54C378.211 106.077 377.395 118.895 377.395 118.895Z" fill="#BE6F72"/>
<path opacity="0.1" d="M317.855 86.2021C332.447 86.2021 344.277 74.3721 344.277 59.779C344.277 45.1858 332.447 33.3558 317.855 33.3558C303.263 33.3558 291.433 45.1858 291.433 59.779C291.433 74.3721 303.263 86.2021 317.855 86.2021Z" fill="black"/>
<path opacity="0.1" d="M377.436 137.718H258.73C258.73 137.528 258.73 137.428 258.73 137.428L259.712 120.274C259.712 120.274 269.341 109.958 277.776 102.995L352.303 100.038L355.77 96.3822L368.327 102.144C378.187 106.675 377.394 119.493 377.394 119.493C377.394 119.493 378.743 134.346 377.436 137.718Z" fill="black"/>
<path d="M377.436 137.126H258.73C258.73 136.937 258.73 136.836 258.73 136.836L259.712 119.682C259.712 119.682 269.341 109.366 277.776 102.404L352.303 99.4463L355.77 95.7907L368.327 101.552C378.187 106.083 377.394 118.901 377.394 118.901C377.394 118.901 378.743 133.754 377.436 137.126Z" fill="#E7C7CA"/>
<path opacity="0.1" d="M298.827 89.0237C298.827 89.0237 317.553 112.886 342.497 88.5327C367.44 64.1799 345.259 142.852 345.259 142.852L291.433 149.24L298.827 89.0237Z" fill="black"/>
<path d="M298.827 90.2067C298.827 90.2067 317.553 114.069 342.497 89.7158C367.44 65.3629 345.259 144.035 345.259 144.035L291.433 150.423L298.827 90.2067Z" fill="#E7C7CA"/>
<path opacity="0.1" d="M350.204 94.3947L352.185 124.615L354.309 134.671L355.929 142.361C355.929 142.361 360.07 201.513 358.887 204.471C357.704 207.428 359.478 209.794 359.727 211.368C359.975 212.941 359.478 216.892 359.673 218.667C359.869 220.442 359.673 221.228 355.143 220.595C350.612 219.962 344.295 218.862 344.295 218.862C344.295 218.862 328.324 220.045 322.806 218.076C317.287 216.106 306.836 216.1 306.836 216.1C306.836 216.1 291.061 216.496 285.938 215.905C280.816 215.313 278.048 222.216 274.7 220.24C271.352 218.265 278.639 199.147 281.005 193.622C283.371 188.097 277.853 174.102 277.853 174.102L284.95 134.724L286.53 125.798V97.7368L286.92 97.6007C288.36 97.0392 289.645 96.143 290.67 94.9862L292.445 123.225L348.045 125.201V93.4187" fill="black"/>
<path d="M350.204 93.2116L352.185 123.432L354.309 133.488L355.929 141.178C355.929 141.178 360.07 200.33 358.887 203.288C357.704 206.245 359.478 208.611 359.727 210.185C359.975 211.758 359.478 215.709 359.673 217.484C359.869 219.259 359.673 220.045 355.143 219.412C350.612 218.779 344.295 217.679 344.295 217.679C344.295 217.679 328.324 218.862 322.806 216.892C317.287 214.923 306.836 214.917 306.836 214.917C306.836 214.917 291.061 215.313 285.938 214.722C280.816 214.13 278.048 221.033 274.7 219.057C271.352 217.082 278.639 197.964 281.005 192.439C283.371 186.914 277.853 172.919 277.853 172.919L284.95 133.541L286.53 124.615V96.5537L286.92 96.4177C288.36 95.8562 289.645 94.96 290.67 93.8032L292.445 122.042L348.045 124.018V92.2356" fill="#E7C7CA"/>
<path opacity="0.1" d="M356.598 30.1438C356.261 28.9076 355.793 27.624 354.823 26.7958C353.897 26.1307 352.827 25.693 351.7 25.5182C349.002 24.8087 346.259 24.283 343.49 23.9447C343.095 22.6312 342.496 21.3878 341.716 20.2595C335.919 12.0729 327.343 4.35359 317.252 2.6086C311.97 1.69175 305.848 2.51396 302.465 6.67826C300.607 8.96744 299.809 12.0019 297.934 14.2497C294.32 18.6151 287.796 19.1534 283.241 22.531C280.81 24.3055 279.047 26.8786 277.326 29.3749C275.463 32.0781 273.547 34.8937 272.955 38.1234C271.772 44.5769 276.037 50.7287 276.823 57.2413C278.598 71.8105 262.983 84.7352 265.934 99.1091C267.655 107.491 275.398 113.394 283.407 116.387C286.228 117.446 289.452 118.499 290.771 121.208C291.362 122.391 291.463 123.758 292.019 124.953C293.888 128.939 300.033 129.093 303.334 126.189C306.635 123.284 307.676 118.588 308.066 114.205C309.651 95.0631 301.985 76.1522 302.879 56.9633C303.145 51.1605 304.777 44.5769 309.976 41.9506C316.974 38.4014 325.391 44.3166 333.092 43.1868C336.736 52.0545 337.51 61.8414 335.304 71.1716C334.08 76.2764 331.962 81.2275 331.808 86.492C331.578 94.5071 335.901 101.83 339.64 108.916C340.442 110.242 340.978 111.71 341.219 113.24C341.278 114.793 340.989 116.339 340.373 117.766C338.262 123.45 334.618 128.726 334.204 134.778C334.083 135.484 334.242 136.21 334.647 136.801C335.064 137.195 335.602 137.437 336.174 137.487C342.562 138.581 348.086 132.92 351.203 127.236C354.679 120.957 356.704 113.98 357.13 106.817C357.775 94.7732 353.457 82.9251 353.723 70.8699C354.031 57.1644 360.224 43.3643 356.598 30.1438Z" fill="black"/>
<path d="M357.189 29.5523C356.852 28.316 356.385 27.0324 355.415 26.2043C354.488 25.5392 353.419 25.1014 352.292 24.9266C349.594 24.2172 346.851 23.6915 344.082 23.3532C343.686 22.0397 343.087 20.7963 342.307 19.668C336.511 11.4814 327.934 3.76207 317.843 2.01708C312.561 1.10023 306.439 1.92244 303.056 6.08674C301.199 8.37592 300.4 11.4104 298.525 13.6582C294.911 18.0236 288.387 18.5619 283.833 21.9395C281.402 23.714 279.639 26.2871 277.918 28.7833C276.054 31.4866 274.138 34.3022 273.547 37.5319C272.364 43.9854 276.628 50.1372 277.415 56.6498C279.189 71.2189 263.574 84.1437 266.526 98.5176C268.247 106.899 275.989 112.803 283.998 115.796C286.82 116.855 290.043 117.908 291.362 120.617C291.954 121.8 292.054 123.166 292.61 124.361C294.479 128.348 300.625 128.502 303.925 125.597C307.226 122.693 308.267 117.996 308.657 113.613C310.243 94.4716 302.577 75.5607 303.47 56.3718C303.736 50.569 305.369 43.9854 310.568 41.359C317.565 37.8099 325.982 43.7251 333.683 42.5953C337.328 51.463 338.101 61.2499 335.896 70.5801C334.671 75.6849 332.554 80.6359 332.4 85.9005C332.169 93.9156 336.493 101.239 340.231 108.325C341.033 109.65 341.57 111.119 341.81 112.649C341.869 114.202 341.58 115.748 340.965 117.174C338.853 122.859 335.209 128.135 334.795 134.186C334.674 134.893 334.833 135.618 335.239 136.209C335.656 136.604 336.194 136.845 336.765 136.895C343.153 137.99 348.678 132.329 351.795 126.644C355.27 120.366 357.295 113.389 357.722 106.225C358.366 94.1817 354.048 82.3336 354.315 70.2784C354.622 56.5729 360.815 42.7728 357.189 29.5523Z" fill="#3E373A"/>
<path d="M344.123 291.459L367.588 292.211L364.222 274.808L346.247 276.518L344.123 291.459Z" fill="#C3C7D9"/>
<path d="M416.829 250.213C415.25 252.183 409.14 255.732 408.548 256.915C407.957 258.098 400.664 261.647 396.914 262.238C393.164 262.83 381.34 265.397 379.169 266.775C377.613 267.769 365.127 270.916 356.923 272.661C354.701 273.187 352.452 273.591 350.186 273.874C346.637 274.069 307.8 260.86 307.8 260.86L315.288 253.17L315.702 253.028C317.82 252.313 327.603 249.006 333.033 247.433C339.149 245.658 346.247 238.365 346.247 238.365C346.247 238.365 356.692 234.816 358.076 234.419C359.461 234.023 354.527 220.619 354.527 220.619C354.527 220.619 377.199 217.472 386.072 214.804C394.944 212.137 415.451 213.125 419.195 223.577C422.939 234.029 418.432 248.243 416.829 250.213Z" fill="#4B4B5B"/>
<path d="M313.514 283.533C313.514 283.533 308.983 288.265 304.446 287.875C299.909 287.484 284.045 289.058 284.045 289.058C281.171 290.205 278.479 291.765 276.054 293.689C272.346 296.612 270.376 294.281 270.009 293.784L269.944 293.689C267.969 299.906 263.438 295.168 263.438 295.168C263.438 295.168 265.408 276.24 264.804 273.874C264.201 271.507 268.702 267.444 268.702 267.444L274.026 266.089L287.512 262.635L306.836 269.337L313.514 283.533Z" fill="#E7C7CA"/>
<path opacity="0.1" d="M274.002 266.089L270.009 293.784L269.944 293.689C267.969 299.906 263.438 295.168 263.438 295.168C263.438 295.168 265.408 276.24 264.804 273.874C264.201 271.507 268.702 267.444 268.702 267.444L274.002 266.089Z" fill="black"/>
<path opacity="0.1" d="M301.909 187.311C301.909 187.311 312.354 190.86 321.428 187.311H301.909Z" fill="black"/>
<path opacity="0.1" d="M337.569 194.018C337.569 194.018 341.905 196.183 345.259 194.018H337.569Z" fill="black"/>
<path opacity="0.1" d="M337.569 199.153C337.569 199.153 344.863 200.129 346.247 198.159L337.569 199.153Z" fill="black"/>
<path opacity="0.1" d="M335.203 210.185C335.203 210.185 348.902 208.41 352.303 206.044L335.203 210.185Z" fill="black"/>
<path opacity="0.1" d="M293.403 206.044C293.403 206.044 301.092 210.38 306.812 210.185L293.403 206.044Z" fill="black"/>
<path opacity="0.1" d="M356.917 272.661C354.695 273.187 352.446 273.591 350.18 273.874C346.631 274.069 307.794 260.86 307.794 260.86L315.282 253.17L315.696 253.028C316.879 253.862 317.849 254.578 318.541 255.122C321.8 257.69 324.947 254.336 326.13 254.336C327.313 254.336 337.564 262.812 337.564 262.812C337.564 262.812 347.027 264.983 348.607 266.953C350.186 268.923 355.705 268.532 356.686 269.91C356.982 270.336 357.018 271.383 356.917 272.661Z" fill="black"/>
<path d="M284.045 221.424C284.045 221.424 274.475 221.974 268.957 219.649C263.438 217.324 245.102 211.959 239.778 215.727C234.455 219.495 221.637 222.825 227.552 237.815C233.467 252.804 236.229 253.194 236.229 253.194C238.059 254.567 239.657 256.224 240.961 258.104C242.736 260.866 259.298 267.172 263.438 267.172C267.578 267.172 274.871 267.172 285.122 274.27C295.373 281.368 304.641 282.161 304.641 282.161C304.641 282.161 317.654 287.484 321.706 288.667C325.757 289.85 344.271 294.973 348.613 293.4C352.954 291.826 355.711 281.96 355.711 281.96C355.711 281.96 357.68 273.087 356.692 271.709C355.705 270.33 350.186 270.721 348.613 268.751C347.039 266.781 337.569 264.61 337.569 264.61C337.569 264.61 327.343 256.128 326.16 256.128C324.977 256.128 321.83 259.476 318.571 256.915C312.079 252.106 305.258 247.757 298.158 243.901C290.67 239.956 284.045 221.424 284.045 221.424Z" fill="#4B4B5B"/>
<path opacity="0.1" d="M264.804 227.144C266.508 226.795 268.27 226.845 269.951 227.29C271.633 227.734 273.189 228.56 274.499 229.705C279.231 233.65 295.154 241.571 295.154 241.571" fill="black"/>
<path opacity="0.1" d="M383.114 226.895C383.114 226.895 362.016 230.089 358.076 234.425L383.114 226.895Z" fill="black"/>
<path d="M407.365 292.211H406.437C403.101 292.092 391.797 291.737 389.621 292.211C387.059 292.802 353.143 292.211 353.143 292.211L359.774 290.832C359.774 290.832 357.313 282.208 358.875 281.492C358.875 281.492 350.003 275.648 356.692 271.703C363.382 267.757 370.592 269.419 370.592 269.419L387.385 263.729L390.608 262.635C390.608 262.635 409.536 263.623 414.658 276.636C419.781 289.649 407.365 292.211 407.365 292.211Z" fill="#E7C7CA"/>
<path opacity="0.1" d="M407.365 292.211H406.437C411.943 287.668 424.4 273.838 387.385 263.759L390.608 262.664C390.608 262.664 409.536 263.652 414.658 276.666C419.781 289.679 407.365 292.211 407.365 292.211Z" fill="black"/>
<path d="M372.568 276.878C373.14 276.878 373.603 276.415 373.603 275.843C373.603 275.272 373.14 274.808 372.568 274.808C371.996 274.808 371.533 275.272 371.533 275.843C371.533 276.415 371.996 276.878 372.568 276.878Z" fill="#4B4B5B"/>
<path d="M366.552 278.588C367.124 278.588 367.588 278.124 367.588 277.553C367.588 276.981 367.124 276.518 366.552 276.518C365.981 276.518 365.517 276.981 365.517 277.553C365.517 278.124 365.981 278.588 366.552 278.588Z" fill="#4B4B5B"/>
<g opacity="0.1">
<path opacity="0.1" d="M337.244 58.8029C337.474 52.2967 336.316 45.8161 333.849 39.7915C326.16 40.9391 317.737 35.0061 310.734 38.5552C305.552 41.1816 303.925 47.7652 303.636 53.568C303.565 55.1 303.553 56.6321 303.582 58.1641C303.582 57.6199 303.582 57.0698 303.636 56.5256C303.908 50.7228 305.534 44.1392 310.734 41.5128C317.737 37.9637 326.148 43.8789 333.849 42.7491C335.938 47.8522 337.089 53.2908 337.244 58.8029Z" fill="black"/>
<path opacity="0.1" d="M277.657 57.7205C277.759 56.4316 277.733 55.1358 277.58 53.8519C276.954 48.6466 274.108 43.6719 273.594 38.5966C272.931 44.7189 276.829 50.5986 277.58 56.8095C277.657 57.129 277.657 57.4129 277.657 57.7205Z" fill="black"/>
<path opacity="0.1" d="M308.823 110.803C308.456 115.193 307.421 119.883 304.091 122.794C300.761 125.704 294.627 125.544 292.776 121.557C292.184 120.374 292.096 118.996 291.522 117.813C290.209 115.104 286.979 114.051 284.158 112.992C276.143 109.993 268.412 104.119 266.691 95.7138C266.537 94.9523 266.433 94.1817 266.378 93.4068C266.232 95.1677 266.338 96.9402 266.691 98.6714C268.412 107.053 276.155 112.951 284.158 115.95C286.979 117.008 290.209 118.061 291.522 120.771C292.113 121.954 292.214 123.32 292.776 124.515C294.639 128.502 300.785 128.655 304.091 125.751C307.398 122.847 308.427 118.15 308.823 113.761C309.003 111.451 309.064 109.133 309.006 106.817C309.006 108.159 308.93 109.484 308.823 110.803Z" fill="black"/>
<path opacity="0.1" d="M354.51 67.4746C354.51 68.3323 354.51 69.1841 354.51 70.0359C354.841 59.0336 358.875 47.9722 358.479 37.2007C358.171 47.1618 354.734 57.3478 354.51 67.4746Z" fill="black"/>
<path opacity="0.1" d="M341.816 111.981C341.962 111.279 342.008 110.56 341.952 109.845C341.714 108.314 341.178 106.845 340.373 105.521C336.954 99.0144 333.056 92.3539 332.595 85.1315C332.595 85.4391 332.554 85.723 332.548 86.0542C332.311 94.0634 336.635 101.392 340.373 108.479C341.008 109.576 341.494 110.754 341.816 111.981Z" fill="black"/>
<path opacity="0.1" d="M357.911 103.421C357.469 110.588 355.43 117.564 351.943 123.841C348.82 129.525 343.301 135.186 336.907 134.092C336.334 134.042 335.796 133.798 335.381 133.399C335.261 133.264 335.167 133.108 335.103 132.938C335.032 133.399 334.973 133.867 334.937 134.34C334.815 135.045 334.974 135.769 335.381 136.357C335.796 136.756 336.334 137 336.907 137.049C343.301 138.143 348.82 132.483 351.943 126.798C355.43 120.522 357.469 113.545 357.911 106.379C357.982 104.995 357.988 103.616 357.946 102.238C357.934 102.635 357.934 103.025 357.911 103.421Z" fill="black"/>
</g>
<path opacity="0.1" d="M358.875 281.492C358.875 281.492 373.846 287.774 383.718 273.874" stroke="black" stroke-miterlimit="10"/>
<path opacity="0.1" d="M361.821 292.471C361.821 292.471 374.047 284.521 389.621 292.211" stroke="black" stroke-miterlimit="10"/>
<path opacity="0.1" d="M279.982 290.667C279.982 290.667 285.116 279.085 298.827 287.916" stroke="black" stroke-miterlimit="10"/>
<path opacity="0.1" d="M263.337 119.386L273.807 109.922C273.807 109.922 314.401 107.26 316.081 121.06C316.081 121.06 330.472 104.699 360.738 108.343L373.544 118.541L338.149 134.074L303.754 146.005L278.42 134.665L263.337 119.386Z" fill="black"/>
<path d="M263.337 119.978L273.807 110.514C273.807 110.514 314.401 107.852 316.081 121.652C316.081 121.652 330.472 105.29 360.738 108.934L373.544 119.132L338.149 134.665L303.754 146.596L278.42 135.257L263.337 119.978Z" fill="#D5D6DB"/>
<path opacity="0.1" d="M258.706 121.161L263.337 176.569L312.431 179.035L310.302 123.864L310.26 122.936L258.706 121.161Z" fill="black"/>
<path d="M258.706 119.978L263.337 175.386L312.431 177.852L310.302 122.681L310.26 121.752L258.706 119.978Z" fill="#003579"/>
<path opacity="0.1" d="M375.792 119.978L325.148 127.573V183.229L374.638 176.078L375.792 119.978Z" fill="black"/>
<path d="M375.792 118.795L325.148 126.39V182.046L374.638 174.895L375.792 118.795Z" fill="#003579"/>
<path opacity="0.3" d="M363.849 132.376L336.493 135.417L337.09 144.739L363.832 141.817L363.849 132.376Z" fill="white"/>
<path d="M265.999 205.056L268.785 212.551C268.785 212.551 272.925 216.1 277.456 214.325C281.987 212.551 285.938 211.669 287.908 209.942C289.878 208.215 292.64 199.537 292.64 199.537C292.64 199.537 295.402 190.073 298.158 187.707C300.915 185.341 308.214 152.742 298.158 155.93C288.103 159.119 280.414 188.695 280.414 188.695C280.414 188.695 278.639 190.86 276.078 191.061C273.517 191.262 268.389 190.664 267.401 192.835C266.413 195.006 263.042 200.72 265.999 205.056Z" fill="#BE6F72"/>
<path opacity="0.1" d="M325.148 127.567C322.555 128.151 319.862 128.121 317.283 127.478C314.704 126.835 312.311 125.597 310.296 123.864L312.431 179.029C312.431 179.029 317.459 184.471 325.148 183.229V127.567Z" fill="black"/>
<path d="M325.148 126.384C322.555 126.968 319.862 126.938 317.283 126.295C314.704 125.652 312.311 124.414 310.296 122.681L312.431 177.846C312.431 177.846 317.459 183.288 325.148 182.046V126.384Z" fill="#003579"/>
<path opacity="0.1" d="M325.148 126.384C322.555 126.968 319.862 126.938 317.283 126.295C314.704 125.652 312.311 124.414 310.296 122.681L312.431 177.846C312.431 177.846 317.459 183.288 325.148 182.046V126.384Z" fill="black"/>
<path opacity="0.1" d="M326.331 120.167C326.331 120.167 346.933 113.868 352.303 114.755L326.331 120.167Z" fill="black"/>
<path opacity="0.1" d="M303.287 117.417C303.287 117.417 283.318 112.684 279.982 114.027L303.287 117.417Z" fill="black"/>
<path opacity="0.1" d="M339.32 120.954C339.32 120.954 353.096 115.902 358.076 118.304L339.32 120.954Z" fill="black"/>
<path opacity="0.1" d="M332.382 247.675C334.517 246.072 336.789 244.661 339.172 243.458C342.721 241.748 349.228 237.312 349.228 237.312" fill="black"/>
<path opacity="0.1" d="M279.982 187.311C279.982 187.311 271.34 194.379 268.744 195C266.147 195.621 264.544 201.134 264.544 201.134" fill="black"/>
<path d="M370.711 204.003L367.954 211.516C367.954 211.516 363.814 215.065 359.277 213.29C354.74 211.516 350.801 210.634 348.825 208.907C346.85 207.18 344.094 198.502 344.094 198.502C344.094 198.502 341.337 189.038 338.575 186.672C335.813 184.306 328.52 151.707 338.575 154.895C348.63 158.084 356.32 187.66 356.32 187.66C356.32 187.66 358.094 189.825 360.655 190.026C363.216 190.227 368.345 189.629 369.332 191.8C370.32 193.971 373.668 199.685 370.711 204.003Z" fill="#BE6F72"/>
<path opacity="0.1" d="M365.878 190.185C365.878 190.185 371.527 193.817 371.503 198.159L365.878 190.185Z" fill="black"/>
<path d="M317.95 84.9067C332.542 84.9067 344.372 73.0767 344.372 58.4835C344.372 43.8904 332.542 32.0604 317.95 32.0604C303.357 32.0604 291.528 43.8904 291.528 58.4835C291.528 73.0767 303.357 84.9067 317.95 84.9067Z" fill="#BE6F72"/>
<path d="M301.358 51.3912C304.564 50.8884 307.374 49.0251 310.438 47.9545C317.293 45.547 324.876 47.1973 331.814 49.3682C334.476 50.2023 337.179 51.1428 339.971 51.1428C342.763 51.1428 345.726 50.0011 347.152 47.5937C348.465 45.3814 348.21 42.5066 347.104 40.1819C345.998 37.8572 344.147 35.988 342.278 34.2253C336.126 28.4166 328.496 22.9864 320.055 23.578C316.66 23.8205 313.413 25.0331 310.29 26.3759C306.357 28.0706 302.53 29.9984 298.827 32.1491C295.982 33.7994 290.712 36.0058 289.073 39.0225C285.347 45.8191 295.562 52.3022 301.358 51.3912Z" fill="#3E373A"/>
<path opacity="0.1" d="M347.152 45.1093C345.726 47.5168 342.763 48.6584 339.971 48.6584C337.179 48.6584 334.476 47.7534 331.808 46.9193C324.87 44.7484 317.293 43.0922 310.432 45.5056C307.374 46.5762 304.558 48.4632 301.353 48.9364C296.68 49.6699 289.156 45.6002 288.34 40.4244C287.423 46.4047 296.147 51.5273 301.353 50.711C304.558 50.2082 307.374 48.3449 310.432 47.2802C317.293 44.8668 324.87 46.523 331.808 48.6939C334.476 49.5279 337.173 50.4684 339.971 50.4329C342.769 50.3975 345.726 49.2972 347.152 46.8838C347.89 45.5709 348.181 44.0529 347.98 42.5598C347.887 43.4587 347.605 44.3277 347.152 45.1093Z" fill="black"/>
<path d="M561.573 365.683C561.573 365.683 565.08 370.268 559.952 377.194C554.824 384.121 550.601 389.965 552.304 394.283C552.304 394.283 560.041 381.424 566.334 381.24C572.628 381.057 568.487 373.414 561.573 365.683Z" fill="#003579"/>
<path opacity="0.1" d="M561.573 365.683C561.878 366.126 562.119 366.61 562.288 367.121C568.428 374.337 571.705 381.075 565.796 381.24C560.295 381.4 553.7 391.237 552.121 393.715C552.171 393.916 552.232 394.113 552.304 394.307C552.304 394.307 560.041 381.447 566.334 381.264C572.628 381.081 568.487 373.414 561.573 365.683Z" fill="black"/>
<path d="M568.079 371.528C568.079 373.142 567.896 374.45 567.677 374.45C567.458 374.45 567.269 373.142 567.269 371.528C567.269 369.913 567.494 370.676 567.718 370.676C567.943 370.676 568.079 369.913 568.079 371.528Z" fill="#FFD037"/>
<path d="M570.321 373.456C568.907 374.225 567.671 374.692 567.565 374.497C567.458 374.302 568.517 373.515 569.931 372.722C571.344 371.93 570.788 372.509 570.895 372.722C571.001 372.935 571.741 372.681 570.321 373.456Z" fill="#FFD037"/>
<path d="M543.035 365.683C543.035 365.683 539.528 370.268 544.656 377.194C549.784 384.121 554.008 389.965 552.298 394.283C552.298 394.283 544.567 381.424 538.268 381.24C531.969 381.057 536.139 373.414 543.035 365.683Z" fill="#003579"/>
<path opacity="0.1" d="M543.035 365.683C542.73 366.126 542.489 366.61 542.32 367.121C536.18 374.337 532.903 381.075 538.812 381.24C544.307 381.4 550.908 391.237 552.487 393.715C552.438 393.917 552.375 394.114 552.298 394.307C552.298 394.307 544.567 381.447 538.268 381.264C531.969 381.081 536.139 373.414 543.035 365.683Z" fill="black"/>
<path d="M536.517 371.528C536.517 373.142 536.695 374.45 536.919 374.45C537.144 374.45 537.328 373.142 537.328 371.528C537.328 369.913 537.097 370.676 536.878 370.676C536.659 370.676 536.517 369.913 536.517 371.528Z" fill="#FFD037"/>
<path d="M534.281 373.456C535.695 374.225 536.931 374.692 537.038 374.497C537.144 374.302 536.085 373.515 534.672 372.722C533.258 371.93 533.814 372.509 533.708 372.722C533.601 372.935 532.862 372.681 534.281 373.456Z" fill="#FFD037"/>
<path opacity="0.1" d="M552.304 429.372C572.558 429.372 588.977 426.854 588.977 423.747C588.977 420.64 572.558 418.121 552.304 418.121C532.051 418.121 515.632 420.64 515.632 423.747C515.632 426.854 532.051 429.372 552.304 429.372Z" fill="#003579"/>
<path d="M571.179 388.102L571.001 389.533L570.753 391.556L570.652 392.402L570.404 394.425L570.297 395.271L570.055 397.288L567.245 420.298C566.997 422.351 563.643 423.954 559.591 423.954H545.011C540.959 423.954 537.611 422.351 537.357 420.298L534.548 397.288L534.299 395.271L534.199 394.425L533.95 392.402L533.844 391.556L533.601 389.533L533.424 388.102C533.288 386.919 535.098 385.961 537.393 385.961H567.216C569.505 385.961 571.321 386.937 571.179 388.102Z" fill="#65617D"/>
<path d="M571.001 389.533L570.759 391.556H533.85L533.601 389.533H571.001Z" fill="#9D9CB5"/>
<path d="M570.652 392.402L570.41 394.425H534.199L533.95 392.402H570.652Z" fill="#9D9CB5"/>
<path d="M570.303 395.271L570.055 397.294H534.548L534.305 395.271H570.303Z" fill="#9D9CB5"/>
</g>
<defs>
<linearGradient id="paint0_linear" x1="323.332" y1="296.895" x2="323.332" y2="-3.91359e-06" gradientUnits="userSpaceOnUse">
<stop stop-color="#808080" stop-opacity="0.25"/>
<stop offset="0.54" stop-color="#808080" stop-opacity="0.12"/>
<stop offset="1" stop-color="#808080" stop-opacity="0.1"/>
</linearGradient>
<clipPath id="clip0">
<rect width="605" height="481" fill="white"/>
</clipPath>
</defs>
</svg>
